<svg width="74" height="52" viewBox="0 0 74 52" fill="none" xmlns="http://www.w3.org/2000/svg">
<g clip-path="url(#clip0_3212_10877)">
<path d="M27.7445 37.5351H18.9212C18.8287 37.1404 18.919 36.7346 18.8621 36.2954C18.7551 36.3288 18.6525 36.3556 18.5544 36.3935C16.9177 37.0178 15.2275 37.4281 13.4727 37.3846C8.62068 37.2653 4.77986 35.2418 2.09965 31.1557C0.800802 29.1745 0.110682 26.9771 0.0136858 24.6057C-0.144629 20.7247 1.06838 17.3354 3.76754 14.5315C5.81672 12.4031 8.34084 11.1177 11.2541 10.616C13.7258 10.1901 16.1273 10.4755 18.463 11.3696C18.5577 11.4053 18.6525 11.441 18.7495 11.4711C18.7696 11.4778 18.7963 11.4655 18.8521 11.4566V10.4231H27.7445V37.534V37.5351ZM18.8799 23.9267C18.8677 20.9589 16.5052 18.5217 13.5898 18.4905C10.5182 18.4581 8.11897 20.7827 8.0387 23.7784C7.95954 26.7061 10.3856 29.2671 13.2664 29.3273C16.3313 29.3908 18.8086 27.0072 18.8799 23.9267Z" fill="white"/>
<path d="M52.1046 31.7706C50.0421 29.708 48.0353 27.7012 46.0273 25.6933C48.5504 23.1714 51.0957 20.625 53.68 18.0417C51.1012 15.4485 48.5481 12.8809 46.0329 10.3512C48.0487 8.33546 50.051 6.33311 52.0801 4.304C54.5842 6.77015 57.1484 9.29427 59.7428 11.8496C62.3126 9.27978 64.8724 6.71998 67.4088 4.18359C69.4502 6.22497 71.4748 8.24962 73.5229 10.2977C70.991 12.8296 68.439 15.3816 65.8725 17.9492C68.4367 20.5536 70.9798 23.1368 73.4906 25.6866C71.4782 27.699 69.4725 29.7047 67.4311 31.746C64.9114 29.2409 62.3349 26.6788 59.7573 24.1168C57.193 26.6811 54.6388 29.2353 52.1046 31.7694V31.7706Z" fill="white"/>
<path d="M41.9634 37.5341H33.1445V3.94673C36.0644 2.64007 38.9955 1.32784 41.9634 0V37.5341Z" fill="white"/>
<path d="M6.48466 50.974L3.8457 44.3527H5.3497L6.73105 47.9371C6.80686 48.1322 6.87153 48.305 6.92504 48.4521C6.97856 48.6004 7.02538 48.7398 7.06664 48.868C7.10789 48.9973 7.14691 49.1233 7.18481 49.246C7.22272 49.3686 7.26063 49.5035 7.29853 49.6484L7.02427 49.6573C7.07444 49.4622 7.12349 49.2805 7.17032 49.1133C7.21826 48.946 7.27401 48.7699 7.3409 48.5837C7.40668 48.3975 7.48695 48.1812 7.58172 47.936L8.88726 44.3516H10.3823L7.72442 50.9729H6.48577L6.48466 50.974Z" fill="white"/>
<path d="M13.6183 50.9768V44.3555H18.0924V45.6042H15.0086V49.7281H18.1582V50.9768H13.6172H13.6183ZM14.2806 48.2052V46.9944H17.6386V48.2052H14.2806Z" fill="white"/>
<path d="M21.8926 50.9768V44.3555H23.1602L26.8204 49.3023H26.5551C26.5294 49.1072 26.5082 48.9165 26.4893 48.7303C26.4703 48.5441 26.4525 48.3557 26.4369 48.1628C26.4213 47.9711 26.409 47.7715 26.399 47.5675C26.389 47.3623 26.3811 47.1449 26.3756 46.9153C26.3689 46.6856 26.3667 46.4347 26.3667 46.1638V44.3566H27.7569V50.9779H26.4703L22.7343 45.9832L23.0933 45.9921C23.1245 46.3199 23.1513 46.5986 23.1736 46.8294C23.1959 47.0602 23.2148 47.2598 23.2305 47.4304C23.2461 47.6009 23.2572 47.7492 23.2639 47.8752C23.2706 48.0012 23.275 48.1216 23.2784 48.2342C23.2817 48.3468 23.2829 48.4672 23.2829 48.5932V50.9768H21.8926Z" fill="white"/>
<path d="M33.1309 50.9768L33.1353 44.3555H34.5579L34.5501 50.9768H33.1309Z" fill="white"/>
<path d="M42.7024 51.0309C42.1662 51.0309 41.689 50.9194 41.2687 50.6953C40.8495 50.4712 40.5195 50.1624 40.2809 49.7688C40.0412 49.3753 39.9219 48.9282 39.9219 48.4298V44.3438H41.3501V48.3451C41.3501 48.6105 41.4103 48.8479 41.5296 49.0598C41.6488 49.2716 41.8116 49.4399 42.0168 49.5659C42.2219 49.6919 42.4505 49.7555 42.7024 49.7555C42.9544 49.7555 43.1952 49.693 43.407 49.5659C43.6189 49.4399 43.785 49.2716 43.9087 49.0598C44.0314 48.849 44.0927 48.6105 44.0927 48.3451V44.3438H45.4741V48.4298C45.4741 48.9282 45.3559 49.3742 45.1195 49.7688C44.8832 50.1635 44.5531 50.4723 44.1306 50.6953C43.7081 50.9194 43.232 51.0309 42.7024 51.0309Z" fill="white"/>
<path d="M49.4102 50.9768V44.3555H52.3423C52.7515 44.3555 53.1239 44.4491 53.4583 44.6342C53.7928 44.8204 54.0559 45.0712 54.2477 45.3856C54.4395 45.7011 54.5364 46.0601 54.5364 46.4637C54.5364 46.8673 54.4406 47.2219 54.2477 47.5463C54.0548 47.8707 53.7917 48.1283 53.4583 48.3178C53.1239 48.5073 52.7515 48.6021 52.3423 48.6021H50.7815V50.9768H49.4102ZM50.7815 47.4482H52.2766C52.4471 47.4482 52.5965 47.4092 52.7259 47.33C52.8552 47.2509 52.9544 47.1405 53.0235 46.9989C53.0927 46.8573 53.1272 46.6979 53.1272 46.5217C53.1272 46.3322 53.086 46.1683 53.0046 46.03C52.9221 45.8918 52.8028 45.7825 52.6456 45.7034C52.4884 45.6242 52.3044 45.5852 52.0971 45.5852H50.7826V47.4482H50.7815ZM53.1651 50.9768L51.4816 47.9878L52.9388 47.7514L54.8118 50.9869L53.1662 50.9768H53.1651Z" fill="white"/>
<path d="M58.3019 50.9768V44.3555H62.776V45.6042H59.6922V49.7281H62.8418V50.9768H58.3008H58.3019ZM58.9641 48.2052V46.9944H62.3222V48.2052H58.9641Z" fill="white"/>
<path d="M68.7237 51.0681C68.3134 51.0681 67.9399 51.0179 67.6032 50.9165C67.2654 50.8161 66.9666 50.6679 66.7046 50.4716C66.4426 50.2765 66.2085 50.0402 66 49.7626L66.8897 48.7502C67.1985 49.1795 67.5062 49.4705 67.8117 49.6254C68.1172 49.7804 68.4505 49.8573 68.8095 49.8573C69.0046 49.8573 69.1797 49.8295 69.3347 49.7726C69.4885 49.7157 69.61 49.6388 69.6992 49.5407C69.7873 49.4426 69.8319 49.3244 69.8319 49.1862C69.8319 49.0858 69.8096 48.9922 69.7661 48.9074C69.7215 48.8227 69.6591 48.7469 69.5766 48.68C69.4941 48.6131 69.3971 48.554 69.2834 48.5005C69.1696 48.447 69.0437 48.4002 68.9054 48.3589C68.7661 48.3177 68.6155 48.2853 68.4517 48.2597C68.0982 48.1772 67.7894 48.078 67.5252 47.962C67.2598 47.8449 67.0391 47.7 66.8629 47.5272C66.6868 47.3544 66.5552 47.1571 66.4705 46.9363C66.3858 46.7156 66.3434 46.4669 66.3434 46.1893C66.3434 45.9117 66.4058 45.6419 66.5329 45.4C66.6589 45.1569 66.8339 44.9473 67.058 44.7712C67.2821 44.595 67.5408 44.459 67.834 44.3642C68.1272 44.2695 68.4383 44.2227 68.7661 44.2227C69.1696 44.2227 69.5231 44.2672 69.8252 44.3553C70.1285 44.4434 70.3916 44.575 70.6146 44.7478C70.8386 44.9217 71.0259 45.1313 71.1776 45.3766L70.279 46.2462C70.1463 46.07 70.0036 45.9218 69.8486 45.8013C69.6937 45.6821 69.5275 45.5917 69.3469 45.5315C69.1674 45.4713 68.9823 45.4412 68.7939 45.4412C68.5854 45.4412 68.4059 45.468 68.2543 45.5215C68.1027 45.575 67.9845 45.6542 67.8998 45.7579C67.8151 45.8616 67.7727 45.9831 67.7727 46.1224C67.7727 46.2362 67.8006 46.3365 67.8574 46.4246C67.9143 46.5127 67.9957 46.5907 68.1038 46.6565C68.2108 46.7222 68.3402 46.7813 68.4918 46.8315C68.6434 46.8817 68.8107 46.9263 68.9935 46.9642C69.3402 47.0333 69.6524 47.1247 69.93 47.2384C70.2076 47.3522 70.4451 47.4893 70.6447 47.6498C70.8431 47.8104 70.9958 47.9999 71.104 48.2173C71.211 48.4347 71.2645 48.6789 71.2645 48.9509C71.2645 49.3991 71.1575 49.7804 70.9434 50.0959C70.7294 50.4114 70.4328 50.6523 70.0538 50.8195C69.6758 50.9867 69.2343 51.0703 68.7293 51.0703L68.7237 51.0681Z" fill="white"/>
<path d="M30.5332 46.6797L37.1546 46.6841V48.1068L30.5332 48.099V46.6797Z" fill="white"/>
</g>
<defs>
<clipPath id="clip0_3212_10877">
<rect width="73.5229" height="51.07" fill="white"/>
</clipPath>
</defs>
</svg>
